#N canvas 0 0 925 1132 10;
#X declare -path build;
#X obj 26 14 declare -path build;
#X obj 51 122 mar~, f 11;
#X obj 213 127 else/play.file~;
#X obj 213 187 dac~;
#X msg 202 71 open piano.mp3 \, 1;
#X obj 114 150 bng 18 250 50 0 empty empty empty 0 -9 0 10 #fcfcfc #000000 #000000;
#X obj 227 16 bng 18 250 50 0 empty empty empty 0 -9 0 10 #fcfcfc #000000 #000000;
#X msg 52 91 open piano.mp3 \, 1;
#X obj 340 167 bng 18 250 50 0 empty empty empty 0 -9 0 10 #fcfcfc #000000 #000000;
#X obj 51 212 dac~ 1;
#X connect 1 0 9 0;
#X connect 1 1 5 0;
#X connect 2 0 3 0;
#X connect 2 0 3 1;
#X connect 2 1 8 0;
#X connect 4 0 2 0;
#X connect 6 0 4 0;
#X connect 6 0 7 0;
#X connect 7 0 1 0;
