#N canvas 0 0 576 560 10;
#X obj 3 5 cnv 15 301 42 empty empty mar~ 20 20 2 37 #e0e0e0 #000000 0;
#X obj 305 6 cnv 15 250 40 empty empty empty 12 13 0 18 #7c7c7c #e0e4dc 0;
#N canvas 0 22 450 278 (subpatch) 0;
#X coords 0 1 100 -1 302 42 1 0 0;
#X restore 2 5 graph;
#N canvas 382 141 749 319 (subpatch) 0;
#X coords 0 -1 1 1 252 42 2 100 100;
#X restore 304 5 pd;
#X obj 336 10 cnv 10 10 10 empty empty xlab 0 15 2 30 #7c7c7c #e0e4dc 0;
#X obj 494 26 cnv 10 10 10 empty empty library 0 6 2 13 #7c7c7c #e0e4dc 0;
#X obj 23 41 cnv 4 4 4 empty empty Minimal 0 28 2 18 #e0e0e0 #000000 0;
#X obj 92 41 cnv 4 4 4 empty empty Audio 0 28 2 18 #e0e0e0 #000000 0;
#X obj 145 41 cnv 4 4 4 empty empty Reader 0 28 2 18 #e0e0e0 #000000 0;
#X obj 3 270 cnv 3 550 3 empty empty inlets 8 12 0 13 #dcdcdc #000000 0;
#X obj 99 279 cnv 17 3 17 empty empty 1 5 9 0 16 #dcdcdc #9c9c9c 0;
#X text 125 280 1|0;
#X text 360 280 play audio file.;
#X text 125 300 open <filename>;
#X text 360 300 Open the audio filename;
#X obj 3 338 cnv 3 550 3 empty empty outlets 8 12 0 13 #dcdcdc #000000 0;
#X obj 100 346 cnv 17 3 17 empty empty 1 5 9 0 16 #dcdcdc #9c9c9c 0;
#X text 125 348 signal;
#X text 360 348 Multichannel signal;
#X obj 100 368 cnv 17 3 17 empty empty 2 5 9 0 16 #dcdcdc #9c9c9c 0;
#X text 125 368 bang;
#X obj 3 403 cnv 3 550 3 empty empty flags 8 12 0 13 #dcdcdc #000000 0;
#X text 125 421 -loop — Loop audio;
#X obj 5 501 cnv 15 552 21 empty empty empty 20 12 0 14 #e0e0e0 #202020 0;
#X text 68 87 [mar~] is an external for loading and playing audio files with automatic resampling;
#X obj 282 217 bng 18 250 50 0 empty empty empty 0 -9 0 10 #fcfcfc #000000 #000000;
#X obj 147 217 dac~ 1;
#X obj 147 195 mar~ -loop sloka.flac 1;
#X text 360 366 Bang when audio is finished;
#X msg 147 150 open sloka.mp3 \, 1;
#X text 125 442 -nor — Deactivate the automatic audio resampling;
#X text 125 462 1 — Start playback on init;
#X connect 27 0 26 0;
#X connect 27 1 25 0;
#X connect 29 0 27 0;
